<svg width="170" height="170" viewBox="0 0 170 170" fill="none" xmlns="http://www.w3.org/2000/svg">
<path d="M99.0762 70.0615V58.0308C102.968 56.3795 106.949 55.141 111.018 54.3154C115.088 53.4897 119.363 53.0769 123.845 53.0769C126.912 53.0769 129.92 53.3128 132.868 53.7846C135.817 54.2564 138.707 54.8461 141.538 55.5538V66.8769C138.707 65.8154 135.847 65.0192 132.957 64.4884C130.067 63.9577 127.03 63.6923 123.845 63.6923C119.363 63.6923 115.058 64.2525 110.93 65.3731C106.802 66.4936 102.851 68.0564 99.0762 70.0615ZM99.0762 108.985V96.9538C102.968 95.3025 106.949 94.0641 111.018 93.2384C115.088 92.4128 119.363 92 123.845 92C126.912 92 129.92 92.2359 132.868 92.7077C135.817 93.1795 138.707 93.7692 141.538 94.4769V105.8C138.707 104.738 135.847 103.942 132.957 103.412C130.067 102.881 127.03 102.615 123.845 102.615C119.363 102.615 115.058 103.146 110.93 104.208C106.802 105.269 102.851 106.862 99.0762 108.985ZM99.0762 89.5231V77.4923C102.968 75.841 106.949 74.6025 111.018 73.7769C115.088 72.9513 119.363 72.5384 123.845 72.5384C126.912 72.5384 129.92 72.7743 132.868 73.2461C135.817 73.7179 138.707 74.3077 141.538 75.0154V86.3384C138.707 85.2769 135.847 84.4808 132.957 83.95C130.067 83.4192 127.03 83.1538 123.845 83.1538C119.363 83.1538 115.058 83.7141 110.93 84.8346C106.802 85.9551 102.851 87.5179 99.0762 89.5231ZM45.9992 113.231C51.5428 113.231 56.939 113.85 62.1877 115.088C67.4364 116.327 72.6557 118.185 77.8454 120.662V50.9538C73.0095 48.1231 67.8787 46 62.4531 44.5846C57.0275 43.1692 51.5428 42.4615 45.9992 42.4615C41.7531 42.4615 37.5364 42.8743 33.3492 43.7C29.1621 44.5256 25.1223 45.7641 21.23 47.4154V117.477C25.3582 116.062 29.4569 115 33.5262 114.292C37.5954 113.585 41.7531 113.231 45.9992 113.231ZM91.9993 120.662C97.189 118.185 102.408 116.327 107.657 115.088C112.906 113.85 118.302 113.231 123.845 113.231C128.092 113.231 132.249 113.585 136.318 114.292C140.388 115 144.486 116.062 148.615 117.477V47.4154C144.722 45.7641 140.683 44.5256 136.495 43.7C132.308 42.8743 128.092 42.4615 123.845 42.4615C118.302 42.4615 112.817 43.1692 107.392 44.5846C101.966 46 96.8352 48.1231 91.9993 50.9538V120.662ZM84.9223 141.538C79.2608 137.056 73.1275 133.577 66.5223 131.1C59.9172 128.623 53.0762 127.385 45.9992 127.385C41.0454 127.385 36.18 128.033 31.4031 129.331C26.6262 130.628 22.0557 132.456 17.6916 134.815C15.2146 136.113 12.8262 136.054 10.5262 134.638C8.22617 133.223 7.07617 131.159 7.07617 128.446V43.1692C7.07617 41.8718 7.40053 40.6333 8.04925 39.4538C8.69797 38.2743 9.67104 37.3897 10.9685 36.8C16.3941 33.9692 22.0557 31.8461 27.9531 30.4308C33.8505 29.0154 39.8659 28.3077 45.9992 28.3077C52.8403 28.3077 59.5339 29.1923 66.08 30.9615C72.6262 32.7308 78.9069 35.3846 84.9223 38.9231C90.9377 35.3846 97.2185 32.7308 103.765 30.9615C110.311 29.1923 117.004 28.3077 123.845 28.3077C129.979 28.3077 135.994 29.0154 141.892 30.4308C147.789 31.8461 153.451 33.9692 158.876 36.8C160.174 37.3897 161.147 38.2743 161.795 39.4538C162.444 40.6333 162.768 41.8718 162.768 43.1692V128.446C162.768 131.159 161.618 133.223 159.318 134.638C157.018 136.054 154.63 136.113 152.153 134.815C147.789 132.456 143.218 130.628 138.442 129.331C133.665 128.033 128.799 127.385 123.845 127.385C116.768 127.385 109.927 128.623 103.322 131.1C96.7172 133.577 90.5839 137.056 84.9223 141.538Z" fill="#FF7A00"/>
</svg>
