<svg width="170" height="170" viewBox="0 0 170 170" fill="none" xmlns="http://www.w3.org/2000/svg">
<path d="M21.2305 56.6155H148.615V120.308C148.615 126.205 146.551 131.218 142.423 135.346C138.295 139.474 133.282 141.539 127.384 141.539H42.4612C36.5638 141.539 31.551 139.474 27.4228 135.346C23.2946 131.218 21.2305 126.205 21.2305 120.308V56.6155ZM35.3843 70.7693V120.308C35.3843 122.313 36.0625 123.994 37.4189 125.35C38.7753 126.706 40.4561 127.385 42.4612 127.385H127.384C129.389 127.385 131.07 126.706 132.427 125.35C133.783 123.994 134.461 122.313 134.461 120.308V70.7693H35.3843ZM21.2305 49.5385V35.3847H63.692V28.3078C63.692 26.3026 64.3702 24.6219 65.7266 23.2655C67.083 21.909 68.7638 21.2308 70.7689 21.2308H99.0766C101.082 21.2308 102.763 21.909 104.119 23.2655C105.475 24.6219 106.154 26.3026 106.154 28.3078V35.3847H148.615V49.5385H21.2305Z" fill="#FF7A00"/>
</svg>
