<svg width="170" height="170" viewBox="0 0 170 170" fill="none" xmlns="http://www.w3.org/2000/svg">
<path d="M17.6928 155.693C16.6312 155.693 15.7761 155.368 15.1274 154.719C14.4787 154.071 14.1543 153.216 14.1543 152.154V141.539H113.231V152.154C113.231 153.216 112.907 154.071 112.258 154.719C111.609 155.368 110.754 155.693 109.693 155.693H17.6928ZM14.1543 127.385V116.769C14.1543 115.708 14.4787 114.853 15.1274 114.204C15.7761 113.555 16.6312 113.231 17.6928 113.231H49.5389V99.0771H77.8466V113.231H109.693C110.754 113.231 111.609 113.555 112.258 114.204C112.907 114.853 113.231 115.708 113.231 116.769V127.385H14.1543ZM127.385 155.693V112.523C123.139 107.687 119.718 102.91 117.124 98.1925C114.529 93.4746 113.231 87.7541 113.231 81.031V14.1541H155.693V81.031C155.693 87.7541 154.425 93.5041 151.889 98.281C149.353 103.058 145.903 107.805 141.539 112.523V141.539H155.693V155.693H127.385ZM127.385 56.6156H141.539V28.3079H127.385V56.6156ZM134.462 99.431C136.585 96.9541 138.295 94.1233 139.593 90.9387C140.89 87.7541 141.539 84.4515 141.539 81.031V70.7694H127.385V81.031C127.385 84.4515 127.975 87.7541 129.154 90.9387C130.334 94.1233 132.103 96.9541 134.462 99.431Z" fill="#FF7A00"/>
</svg>
