<svg width="3027" height="2517" viewBox="0 0 3027 2517" fill="none" xmlns="http://www.w3.org/2000/svg">
<rect width="3027" height="2517" fill="#FFE1C6"/>
<path fill-rule="evenodd" clip-rule="evenodd" d="M0 2372.41L72.3848 2377.67C144.77 2382.93 289.539 2396.07 434.309 2390.81C579.078 2382.93 723.848 2359.27 862.037 2330.35C1006.81 2298.8 1151.58 2262 1296.35 2262C1441.12 2262 1585.88 2298.8 1730.65 2311.95C1875.42 2322.46 2020.19 2311.95 2164.96 2298.8C2303.15 2288.29 2447.92 2275.14 2592.69 2293.55C2737.46 2311.95 2882.23 2359.27 2954.62 2382.93L3027 2409.22V2517H2954.62C2882.23 2517 2737.46 2517 2592.69 2517C2447.92 2517 2303.15 2517 2164.96 2517C2020.19 2517 1875.42 2517 1730.65 2517C1585.88 2517 1441.12 2517 1296.35 2517C1151.58 2517 1006.81 2517 862.037 2517C723.848 2517 579.078 2517 434.309 2517C289.539 2517 144.77 2517 72.3848 2517H0V2372.41Z" fill="#FBFBFC"/>
</svg>
