<svg width="3027" height="1920" viewBox="0 0 3027 1920" fill="none" xmlns="http://www.w3.org/2000/svg">
<rect width="3027" height="1920" fill="#FFE1C6"/>
<path fill-rule="evenodd" clip-rule="evenodd" d="M0 1775.41L72.3848 1780.67C144.77 1785.93 289.539 1799.07 434.309 1793.81C579.078 1785.93 723.848 1762.27 862.037 1733.35C1006.81 1701.8 1151.58 1665 1296.35 1665C1441.12 1665 1585.88 1701.8 1730.65 1714.95C1875.42 1725.46 2020.19 1714.95 2164.96 1701.8C2303.15 1691.29 2447.92 1678.14 2592.69 1696.55C2737.46 1714.95 2882.23 1762.27 2954.62 1785.93L3027 1812.22V1920H2954.62C2882.23 1920 2737.46 1920 2592.69 1920C2447.92 1920 2303.15 1920 2164.96 1920C2020.19 1920 1875.42 1920 1730.65 1920C1585.88 1920 1441.12 1920 1296.35 1920C1151.58 1920 1006.81 1920 862.037 1920C723.848 1920 579.078 1920 434.309 1920C289.539 1920 144.77 1920 72.3848 1920H0V1775.41Z" fill="#FBFBFC"/>
</svg>
