<svg width="3027" height="1229" viewBox="0 0 3027 1229" fill="none" xmlns="http://www.w3.org/2000/svg">
<rect y="144.09" width="3027" height="1084.91" fill="#FFE1C6"/>
<path fill-rule="evenodd" clip-rule="evenodd" d="M0 62.3893L72.3848 65.3603C144.77 68.3312 289.539 75.7585 434.309 72.7876C579.078 68.3312 723.848 54.962 862.037 38.622C1006.81 20.7964 1151.58 0 1296.35 0C1441.12 0 1585.88 20.7964 1730.65 28.2237C1875.42 34.1656 2020.19 28.2237 2164.96 20.7964C2303.15 14.8546 2447.92 7.4273 2592.69 17.8255C2737.46 28.2237 2882.23 54.962 2954.62 68.3312L3027 83.1858V144.09H2954.62C2882.23 144.09 2737.46 144.09 2592.69 144.09C2447.92 144.09 2303.15 144.09 2164.96 144.09C2020.19 144.09 1875.42 144.09 1730.65 144.09C1585.88 144.09 1441.12 144.09 1296.35 144.09C1151.58 144.09 1006.81 144.09 862.037 144.09C723.848 144.09 579.078 144.09 434.309 144.09C289.539 144.09 144.77 144.09 72.3848 144.09H0V62.3893Z" fill="#FFE1C6"/>
<path fill-rule="evenodd" clip-rule="evenodd" d="M3027 1126.15L2954.62 1129.89C2882.23 1133.63 2737.46 1142.98 2592.69 1139.24C2447.92 1133.63 2303.15 1116.8 2164.96 1096.23C2020.19 1073.8 1875.42 1047.62 1730.65 1047.62C1585.88 1047.62 1441.12 1073.8 1296.35 1083.15C1151.58 1090.63 1006.81 1083.15 862.037 1073.8C723.848 1066.32 579.078 1056.97 434.309 1070.06C289.539 1083.15 144.77 1116.8 72.3848 1133.63L0 1152.33V1229H72.3848C144.77 1229 289.539 1229 434.309 1229C579.078 1229 723.848 1229 862.037 1229C1006.81 1229 1151.58 1229 1296.35 1229C1441.12 1229 1585.88 1229 1730.65 1229C1875.42 1229 2020.19 1229 2164.96 1229C2303.15 1229 2447.92 1229 2592.69 1229C2737.46 1229 2882.23 1229 2954.62 1229H3027V1126.15Z" fill="#FBFBFC"/>
</svg>
