<svg width="1113" height="866" viewBox="0 0 1113 866" fill="none" xmlns="http://www.w3.org/2000/svg">
<g clip-path="url(#clip0_15_296)">
<path opacity="0.1" d="M405.042 860.017C628.74 860.017 810.084 853.554 810.084 845.581C810.084 837.608 628.74 831.145 405.042 831.145C181.343 831.145 0 837.608 0 845.581C0 853.554 181.343 860.017 405.042 860.017Z" fill="#FF7A00"/>
<path opacity="0.1" d="M298.559 26.208C324.363 3.21311 364.868 -1.47338 401.737 0.358363C517.541 6.11181 622.076 62.0199 712.499 125.258C745.233 148.151 777.462 172.823 798.71 204.349C841.964 268.526 829.134 357.431 768.987 410.301C748.524 428.289 723.717 442.079 698.249 454.303C652.967 476.038 604.108 493.486 552.714 498.452C516.064 501.993 478.963 499.114 442.527 494.173C340.729 480.367 240.807 449.84 157.058 397.609C120.326 374.701 85.7036 346.221 70.5633 309.162C55.4229 272.103 65.1125 225.141 102.62 203.206C118.132 194.133 136.68 190.036 154.838 186.189C181.567 180.525 208.724 174.943 232.844 163.429C257.757 151.538 287.257 128.542 282.324 102.221C277.031 73.979 272.785 49.176 298.559 26.208Z" fill="#FF7A00"/>
<path opacity="0.1" d="M1004.37 866C1064.2 866 1112.7 861.709 1112.7 856.416C1112.7 851.122 1064.2 846.831 1004.37 846.831C944.547 846.831 896.047 851.122 896.047 856.416C896.047 861.709 944.547 866 1004.37 866Z" fill="#FF7A00"/>
<path d="M564.982 326.151C563.218 322.737 553.895 301.521 553.895 301.521L538.272 261.039C538.272 261.039 527.185 243.969 527.185 240.799C527.185 237.628 507.026 224.947 507.026 224.947C507.026 224.947 490.647 220.07 489.387 219.582C488.127 219.094 468.725 212.676 468.725 212.676C468.725 212.676 461.084 202.629 459.996 205.253L459.995 205.259C459.955 205.193 459.914 205.136 459.875 205.067C458.314 202.151 457.325 198.962 456.962 195.674C456.921 195.382 456.885 195.073 456.848 194.769C461.88 191.358 466.005 186.771 468.865 181.406C471.725 176.042 473.234 170.06 473.26 163.981C473.257 162.38 473.149 160.782 472.938 159.195C473.076 159.109 473.221 159.033 473.371 158.967C473.685 158.831 473.605 158.72 473.375 158.605C473.454 158.563 473.533 158.519 473.612 158.485C474.029 158.304 473.751 158.167 473.347 158.004L473.371 157.992C473.94 157.745 473.221 157.581 472.643 157.32C472.612 157.151 472.583 156.982 472.55 156.814C472.678 156.493 472.756 156.154 472.781 155.809C472.833 155.834 472.879 155.862 472.933 155.886C473.074 155.257 473.07 154.605 472.923 153.978C472.887 154.105 472.843 154.231 472.792 154.353C472.828 153.784 472.711 153.217 472.453 152.709C472.195 152.201 471.805 151.772 471.325 151.466C471.296 151.441 471.264 151.414 471.235 151.388L472.304 140.448C488.061 139.703 490.825 112.895 487.232 111.405C483.638 109.916 487.232 106.689 487.232 100.235C487.232 93.7812 475.344 86.5827 475.344 86.5827C475.344 86.5827 470.368 89.065 462.628 76.6537C454.888 64.2425 426.414 62.2567 424.479 65.4836C422.543 68.7105 409.827 72.9304 393.24 77.6466C376.654 82.3629 379.694 101.973 382.459 106.193C384.736 109.681 386.07 113.701 386.329 117.859C386.329 120.341 391.582 130.767 391.582 130.767C389.925 134.379 394.141 154.17 395.389 159.795C395.37 159.967 395.349 160.14 395.332 160.313C395.321 160.33 395.307 160.345 395.297 160.362C395.237 160.453 395.184 160.547 395.136 160.645C394.868 161.228 394.779 161.877 394.881 162.511C394.79 163.203 394.886 163.907 395.161 164.549C395.255 169.849 396.482 175.066 398.757 179.853C401.032 184.64 404.303 188.885 408.353 192.305C408.372 192.643 408.392 192.984 408.41 193.333C408.642 197.927 408.773 203.36 408.531 208.56C408.519 208.826 408.499 209.086 408.484 209.351C407.57 209.536 406.712 209.933 405.979 210.511C405.247 211.088 404.66 211.83 404.268 212.676C402.705 215.68 393.634 220.314 393.634 220.314C393.634 220.314 377.759 221.045 376.247 223.972C374.735 226.898 351.805 236.653 351.805 236.653C351.805 236.653 339.71 243.725 341.473 251.773C342.395 255.978 339.808 262.51 337.127 267.793C331.52 265.666 325.681 264.211 319.732 263.455L332.578 275.745C332.309 276.165 332.15 276.403 332.15 276.403L324.843 302.253C324.843 302.253 322.323 311.276 319.803 313.47C317.283 315.665 322.071 335.662 322.071 335.662C322.071 335.662 319.299 349.806 317.031 353.464C314.763 357.122 320.559 366.145 320.559 366.145L332.15 392.483L362.892 400.286C362.892 400.286 364.941 400.72 368.251 401.429C368.147 402.058 368.04 402.685 367.932 403.31C366.45 411.699 364.505 419.415 362.136 421.503C356.34 426.624 356.592 449.547 356.592 449.547L356.844 481.981C356.844 481.981 358.86 521.975 357.852 523.438C357.216 524.362 358.493 525.868 361.861 527.221C361.765 527.823 361.671 528.434 361.582 529.057C360.634 535.69 360.211 543.26 362.388 546.605C363.333 548.415 363.851 550.417 363.9 552.458C363.9 555.629 368.688 562.213 368.688 562.213C368.688 562.213 364.908 589.282 371.207 598.549C377.507 607.815 382.799 624.642 379.775 628.544C379.775 628.544 374.483 640.006 377.003 645.127C379.523 650.248 377.003 653.174 373.727 654.394C370.451 655.613 370.734 665.612 370.734 665.612L376.751 713.165C376.751 713.165 380.027 722.92 377.255 726.334C374.483 729.748 374.483 746.819 378.767 752.671C383.051 758.524 372.719 769.254 372.719 769.254C372.719 769.254 366.42 778.277 376.499 781.204C376.499 781.204 378.515 781.691 374.735 785.593C370.955 789.495 370.199 794.372 372.719 796.079C373.242 796.393 373.788 796.664 374.354 796.891C374.26 797.469 374.159 798.068 374.04 798.703C373.072 803.795 371.248 810.428 367.932 813.638C361.505 820.223 355.958 827.613 351.432 835.625C347.975 842.18 346.463 848.315 350.293 851.193C359.364 858.021 370.955 860.216 377.759 857.533C384.562 854.851 394.138 846.56 394.138 846.56L396.406 837.049C396.406 837.049 394.894 831.196 402.453 829.001C410.013 826.806 417.068 819.003 417.068 819.003V806.361C418.898 805.315 420.665 804.162 422.36 802.908C422.36 802.908 425.888 790.471 422.36 786.325C418.832 782.179 417.572 780.716 422.108 778.034C426.643 775.351 427.258 769.498 423.932 764.377C420.596 759.256 415.304 751.696 419.84 740.966C424.376 730.236 426.039 697.314 426.039 697.314C426.039 697.314 423.922 674.879 426.039 669.758C428.155 664.636 423.62 654.394 423.62 654.394C423.62 654.394 425.132 641.713 427.903 635.86C430.675 630.007 432.943 599.037 432.943 599.037C432.943 599.037 437.983 585.868 437.983 577.333C437.983 568.797 430.171 548.313 441.762 542.948C441.762 542.948 446.802 547.337 444.786 564.895C444.786 564.895 450.582 585.38 450.582 591.721C450.582 598.061 454.865 620.984 454.865 620.984C454.865 620.984 455.37 628.3 457.133 630.983C458.897 633.666 457.133 640.981 457.133 640.981C457.133 640.981 463.685 647.078 461.921 650.98C460.157 654.882 462.223 663.68 462.223 663.68L460.661 718.287C460.661 718.287 456.125 741.698 466.709 755.842C466.709 755.842 462.929 776.57 460.661 778.034C458.393 779.497 468.977 792.178 468.977 792.178C468.977 792.178 466.043 800.393 472 800.796V814.37C474.069 818.024 476.906 821.186 480.316 823.636C485.859 827.538 483.591 840.951 483.591 840.951C483.591 840.951 490.647 858.021 509.294 854.363C527.94 850.706 530.46 848.998 529.452 842.902C529.089 840.678 528.283 836.708 527.124 832.201C525.118 824.368 522.044 814.916 518.365 810.253C512.57 802.908 507.782 787.544 507.782 787.544C507.782 787.544 505.514 782.423 507.782 780.716C510.05 779.009 509.042 775.839 509.042 775.839C509.042 775.839 511.249 769.498 509.263 765.597C507.278 761.695 513.073 753.647 513.073 753.647L511.31 716.092L513.073 661.466C513.073 661.466 505.262 652.443 508.538 647.078C511.814 641.713 504.758 634.153 504.758 634.153C504.758 634.153 504.002 633.909 506.018 627.813C507.224 624.22 507.045 620.306 505.514 616.839C505.514 616.839 501.23 601.719 508.79 590.258C508.79 590.258 512.066 575.138 513.073 567.334C513.769 561.911 518.123 541.65 520.714 529.798C520.86 529.129 521 528.487 521.135 527.875C524.866 528.079 527.688 528.316 527.688 528.316C527.688 528.316 521.893 488.078 527.688 479.787C533.484 471.495 523.153 408.09 523.153 408.09C523.153 408.09 520.683 397.009 519.161 385.703C519.074 385.059 518.995 384.416 518.915 383.772C523.594 383.398 528.29 383.294 532.98 383.46C545.075 384.192 556.918 379.558 557.17 374.925C557.422 370.291 563.974 352.001 564.982 347.856C565.99 343.71 566.746 329.565 564.982 326.151Z" fill="url(#paint0_linear_15_296)"/>
<path d="M417.95 796.595V819.176C417.95 819.176 411.152 826.945 403.868 829.13C396.584 831.316 398.041 837.143 398.041 837.143L395.855 846.612C395.855 846.612 386.629 854.867 380.073 857.538C373.518 860.209 362.349 858.024 353.608 851.225C349.917 848.36 351.374 842.252 354.705 835.725C359.045 827.777 364.389 820.42 370.604 813.834C373.799 810.639 375.557 804.034 376.49 798.965C377.179 795.167 377.402 792.225 377.402 792.225L417.95 796.595Z" fill="#4C495A"/>
<path opacity="0.1" d="M417.95 813.446V819.176C417.95 819.176 411.152 826.945 403.868 829.131C396.584 831.316 398.041 837.143 398.041 837.143L395.855 846.612C395.855 846.612 386.629 854.868 380.073 857.538C373.518 860.209 362.349 858.024 353.608 851.226C349.917 848.361 351.374 842.252 354.705 835.725C354.55 842.582 356.58 850.283 366.476 850.012C377.158 849.673 387.451 845.93 395.855 839.328C395.855 839.328 395.613 823.303 406.781 819.661C410.864 818.314 414.653 816.205 417.95 813.446Z" fill="black"/>
<path d="M506.816 854.382C488.848 858.024 482.05 841.028 482.05 841.028C482.05 841.028 484.235 827.673 478.893 823.789C475.59 821.325 472.857 818.178 470.881 814.562V792.224L492.733 776.685L504.562 787.155L505.359 787.854C505.359 787.854 509.972 803.151 515.556 810.464C519.101 815.106 522.063 824.517 523.996 832.316C525.113 836.803 525.89 840.756 526.24 842.97C527.211 849.04 524.783 850.74 506.816 854.382Z" fill="#4C495A"/>
<path opacity="0.1" d="M506.816 854.382C488.848 858.024 482.05 841.028 482.05 841.028C482.05 841.028 484.235 827.673 478.893 823.789C475.59 821.325 472.857 818.178 470.881 814.562V805.909C474.348 809.57 480.884 816.66 482.293 819.661C484.235 823.789 484.478 838.842 493.461 841.513C502.445 844.184 519.927 846.612 521.384 839.814C521.989 837.23 522.865 834.717 523.996 832.316C525.113 836.803 525.89 840.756 526.24 842.97C527.211 849.04 524.783 850.74 506.816 854.382Z" fill="black"/>
<path opacity="0.1" d="M377.402 792.225L417.95 796.595V808.531C413.376 811.241 406.82 814.116 403.139 811.163C397.7 806.812 381.53 801.286 376.489 798.965C377.179 795.167 377.402 792.225 377.402 792.225Z" fill="black"/>
<path opacity="0.1" d="M505.359 789.796C499.774 787.854 489.819 796.352 476.708 801.694C474.886 802.552 472.896 802.997 470.881 802.995V792.224L492.733 776.685L504.562 787.155C504.745 788.058 505.011 788.943 505.359 789.796Z" fill="black"/>
<path d="M519.684 522.472C519.684 522.472 518.916 526.046 517.819 531.232C515.323 543.032 511.127 563.204 510.457 568.604C509.486 576.374 506.33 591.427 506.33 591.427C499.046 602.839 503.173 617.893 503.173 617.893C504.649 621.357 504.822 625.238 503.659 628.819C501.716 634.889 502.445 635.132 502.445 635.132C502.445 635.132 509.243 642.659 506.087 648C502.93 653.342 510.457 662.325 510.457 662.325L508.758 716.713L510.457 754.105C510.457 754.105 504.873 762.117 506.786 766.002C508.699 769.887 506.572 776.2 506.572 776.2C506.572 776.2 507.544 779.356 505.358 781.056C503.173 782.755 505.358 787.854 505.358 787.854C499.774 785.912 489.819 794.41 476.708 799.751C463.596 805.093 467.967 792.467 467.967 792.467C467.967 792.467 457.769 779.842 459.954 778.385C462.14 776.928 465.782 756.29 465.782 756.29C455.584 742.207 459.954 718.898 459.954 718.898L461.46 664.53C461.46 664.53 459.469 655.77 461.168 651.885C462.868 648 456.555 641.93 456.555 641.93C456.555 641.93 458.255 634.646 456.555 631.975C454.856 629.304 454.37 622.02 454.37 622.02C454.37 622.02 450.242 599.197 450.242 592.884C450.242 586.571 444.658 566.176 444.658 566.176C446.6 548.694 441.744 544.324 441.744 544.324C430.575 549.665 438.102 570.061 438.102 578.559C438.102 587.057 433.246 600.168 433.246 600.168C433.246 600.168 431.061 631.004 428.39 636.831C425.719 642.659 424.262 655.284 424.262 655.284C424.262 655.284 428.633 665.482 426.593 670.581C424.554 675.68 426.593 698.017 426.593 698.017C426.593 698.017 424.991 730.796 420.62 741.479C416.25 752.162 421.349 759.689 424.564 764.788C427.769 769.887 427.176 775.714 422.806 778.385C418.435 781.056 419.649 782.513 423.048 786.64C426.448 790.768 423.048 803.151 423.048 803.151C423.048 803.151 409.209 814.077 403.139 809.221C397.069 804.365 377.644 798.052 375.216 796.352C372.788 794.653 373.517 789.797 377.159 785.912C380.801 782.027 378.858 781.541 378.858 781.541C369.146 778.628 375.216 769.644 375.216 769.644C375.216 769.644 385.171 758.961 381.044 753.133C376.916 747.306 376.916 730.31 379.587 726.911C382.258 723.512 379.101 713.799 379.101 713.799L373.303 666.453C373.303 666.453 373.031 656.498 376.188 655.284C379.344 654.07 381.772 651.157 379.344 646.058C376.916 640.959 382.015 629.547 382.015 629.547C384.929 625.662 379.83 608.909 373.76 599.683C367.69 590.456 371.332 563.505 371.332 563.505C371.332 563.505 366.718 556.949 366.718 553.793C366.673 551.766 366.175 549.775 365.262 547.966C363.164 544.635 363.572 537.098 364.485 530.494C365.368 524.103 366.718 518.587 366.718 518.587L519.684 522.472Z" fill="#5F5D7E"/>
<path d="M472.095 247.377L424.263 258.546C424.263 258.546 400.712 238.636 406.539 227.953C408.54 224.281 409.423 218.017 409.724 211.394C409.957 206.217 409.831 200.807 409.608 196.233C409.268 189.619 408.724 184.734 408.724 184.734C408.724 184.734 457.77 157.054 456.07 184.734C455.725 189.343 455.832 193.975 456.391 198.564C456.738 201.829 457.69 205 459.198 207.917C461.82 212.588 465.054 212.656 465.054 212.656L472.095 247.377Z" fill="#FDC2CC"/>
<path opacity="0.1" d="M456.391 198.564C449.478 203.522 441.089 205.992 432.592 205.568C424.096 205.145 415.993 201.854 409.608 196.233C409.268 189.619 408.724 184.734 408.724 184.734C408.724 184.734 457.77 157.054 456.071 184.734C455.725 189.343 455.832 193.975 456.391 198.564Z" fill="black"/>
<path d="M434.46 204.644C455.245 204.644 472.095 187.794 472.095 167.01C472.095 146.225 455.245 129.375 434.46 129.375C413.676 129.375 396.826 146.225 396.826 167.01C396.826 187.794 413.676 204.644 434.46 204.644Z" fill="#FDC2CC"/>
<path opacity="0.1" d="M472.095 247.377L424.263 258.546C424.263 258.546 400.712 238.636 406.539 227.953C408.54 224.281 409.423 218.017 409.724 211.393C410.78 217.153 413.872 222.341 418.436 226.01C429.362 233.294 427.663 242.278 427.663 242.278L447.33 241.549C446.116 233.537 453.4 229.167 455.828 228.195C458.256 227.224 457.042 222.854 457.042 222.854L459.198 207.917C461.82 212.588 465.054 212.656 465.054 212.656L472.095 247.377Z" fill="black"/>
<path opacity="0.1" d="M519.684 522.472C519.684 522.472 518.917 526.046 517.82 531.232C512.536 530.95 505.553 530.746 502.446 531.455C497.104 532.669 475.737 533.155 475.737 533.155L422.806 535.029V533.398C416.718 533.447 410.637 533.852 404.596 534.612C395.613 535.826 381.53 534.126 372.546 532.669C369.781 532.273 367.074 531.542 364.485 530.494C365.369 524.103 366.719 518.587 366.719 518.587L519.684 522.472Z" fill="black"/>
<path d="M515.557 368.292C514.789 372.828 515.353 380.345 516.324 387.765C517.79 399.021 520.17 410.054 520.17 410.054C520.17 410.054 530.125 473.183 524.54 481.438C518.956 489.693 524.54 529.756 524.54 529.756C524.54 529.756 507.787 528.299 502.445 529.513C497.104 530.727 475.737 531.213 475.737 531.213L422.806 533.087V531.455C416.718 531.504 410.637 531.91 404.596 532.669C395.612 533.883 381.53 532.184 372.546 530.727C363.563 529.27 359.921 526.357 360.892 524.9C361.863 523.443 359.921 483.623 359.921 483.623L359.678 451.331C359.678 451.331 359.435 428.507 365.019 423.409C367.302 421.33 369.176 413.648 370.604 405.295C372.653 393.204 373.76 379.704 373.76 379.704L336.854 280.884L336.126 278.941C336.126 278.941 346.809 262.431 345.11 254.418C343.41 246.406 355.065 239.365 355.065 239.365C355.065 239.365 377.159 229.653 378.616 226.739C380.073 223.825 395.37 223.097 395.37 223.097C395.37 223.097 404.111 218.484 405.616 215.492C405.982 214.657 406.543 213.92 407.25 213.345C407.958 212.769 408.793 212.37 409.685 212.181C410.714 218.011 413.823 223.27 418.436 226.982C429.362 234.266 427.662 243.249 427.662 243.249L447.329 242.521C446.115 234.509 453.399 230.138 455.827 229.167C458.255 228.196 457.041 223.825 457.041 223.825L459.314 208.101C460.363 205.489 467.725 215.492 467.725 215.492C467.725 215.492 486.42 221.883 487.634 222.368C488.848 222.854 504.631 227.71 504.631 227.71C504.631 227.71 524.055 240.336 524.055 243.492C524.055 246.649 534.738 263.645 534.738 263.645C534.738 263.645 534.612 264.325 534.379 265.568C531.912 278.951 517.334 357.852 515.557 368.292Z" fill="#FF7A00"/>
<path d="M437.86 328.958C437.86 328.958 395.856 317.789 391.728 315.119C387.6 312.448 363.32 327.987 392.942 349.111C392.942 349.111 429.164 356.638 438.854 349.111C448.544 341.584 437.86 328.958 437.86 328.958Z" fill="#FDC2CC"/>
<path opacity="0.1" d="M528.668 262.431L533.766 262.673L548.82 302.979C548.82 302.979 557.804 324.102 559.503 327.502C561.203 330.901 560.475 344.983 559.503 349.111C558.532 353.239 552.219 371.449 551.977 376.062C551.734 380.675 540.322 385.288 528.668 384.56C517.013 383.832 489.819 387.474 489.819 387.474C489.819 387.474 460.777 384.438 442.959 393.544C442.959 393.544 431.547 369.992 432.761 326.045C432.761 326.045 452.913 324.831 458.012 326.773C463.111 328.716 487.877 334.3 491.033 331.386C494.19 328.473 508.515 336.728 508.515 336.728C509.244 335.127 509.621 333.388 509.621 331.629C509.621 329.87 509.244 328.131 508.515 326.53C506.087 320.703 501.959 302.493 507.301 296.666C512.643 290.838 528.668 262.431 528.668 262.431Z" fill="black"/>
<path opacity="0.1" d="M516.324 387.765C504.271 388.581 490.791 390.388 490.791 390.388C490.791 390.388 461.751 387.348 443.93 396.458C443.93 396.458 432.518 372.906 433.732 328.959C433.732 328.959 453.885 327.745 458.983 329.687C464.082 331.629 488.848 337.214 492.004 334.3C495.161 331.387 509.486 339.642 509.486 339.642C510.215 338.041 510.592 336.302 510.592 334.543C510.592 332.784 510.215 331.045 509.486 329.444C507.058 323.617 502.93 305.407 508.272 299.58C513.614 293.752 529.639 265.344 529.639 265.344L534.378 265.568C531.911 278.951 517.334 357.852 515.556 368.293C514.789 372.828 515.352 380.345 516.324 387.765Z" fill="black"/>
<path d="M529.639 263.402L534.738 263.645L549.791 303.95C549.791 303.95 558.775 325.074 560.475 328.473C562.174 331.872 561.446 345.955 560.475 350.082C559.503 354.21 553.191 372.42 552.948 377.033C552.705 381.647 541.293 386.26 529.639 385.531C517.984 384.803 490.791 388.445 490.791 388.445C490.791 388.445 461.748 385.41 443.93 394.515C443.93 394.515 432.518 370.963 433.732 327.016C433.732 327.016 453.885 325.802 458.983 327.745C464.082 329.687 488.848 335.271 492.004 332.358C495.161 329.444 509.486 337.7 509.486 337.7C510.215 336.098 510.592 334.36 510.592 332.601C510.592 330.842 510.215 329.103 509.486 327.502C507.058 321.675 502.93 303.464 508.272 297.637C513.614 291.81 529.639 263.402 529.639 263.402Z" fill="#FF7A00"/>
<path d="M478.342 352.586L484.4 356.337L518.162 301.812L512.103 298.06L478.342 352.586Z" fill="#DFE6F5"/>
<path d="M535.474 294.427C541.44 284.791 540.798 273.587 534.039 269.402C527.28 265.217 516.964 269.636 510.998 279.272C505.031 288.909 505.673 300.113 512.432 304.298C519.191 308.483 529.507 304.064 535.474 294.427Z" fill="#DFE6F5"/>
<path opacity="0.1" d="M532.02 292.289C536.303 285.372 535.842 277.329 530.991 274.325C526.139 271.321 518.735 274.494 514.452 281.411C510.169 288.328 510.63 296.37 515.481 299.374C520.333 302.378 527.738 299.206 532.02 292.289Z" fill="black"/>
<path d="M461.086 380.455L467.145 384.206L488.152 350.279L482.093 346.528L461.086 380.455Z" fill="#53526B"/>
<path d="M425.477 382.861L440.288 378.733C440.288 378.733 513.371 380.675 488.848 350.568C488.848 350.568 475.98 338.185 449.029 348.14C422.078 358.095 414.551 359.309 414.551 359.309L425.477 382.861Z" fill="#FDC2CC"/>
<path opacity="0.1" d="M414.551 255.875C416.16 255.875 417.465 254.571 417.465 252.961C417.465 251.352 416.16 250.048 414.551 250.048C412.942 250.048 411.638 251.352 411.638 252.961C411.638 254.571 412.942 255.875 414.551 255.875Z" fill="black"/>
<path opacity="0.1" d="M464.568 254.175C466.178 254.175 467.482 252.871 467.482 251.262C467.482 249.653 466.178 248.348 464.568 248.348C462.959 248.348 461.655 249.653 461.655 251.262C461.655 252.871 462.959 254.175 464.568 254.175Z" fill="black"/>
<path d="M414.551 254.904C416.16 254.904 417.465 253.599 417.465 251.99C417.465 250.381 416.16 249.077 414.551 249.077C412.942 249.077 411.638 250.381 411.638 251.99C411.638 253.599 412.942 254.904 414.551 254.904Z" fill="white"/>
<path opacity="0.1" d="M418.679 296.18C420.288 296.18 421.592 294.876 421.592 293.267C421.592 291.658 420.288 290.353 418.679 290.353C417.07 290.353 415.765 291.658 415.765 293.267C415.765 294.876 417.07 296.18 418.679 296.18Z" fill="black"/>
<path opacity="0.1" d="M466.024 293.267C467.634 293.267 468.938 291.962 468.938 290.353C468.938 288.744 467.634 287.44 466.024 287.44C464.415 287.44 463.111 288.744 463.111 290.353C463.111 291.962 464.415 293.267 466.024 293.267Z" fill="black"/>
<path d="M418.679 295.209C420.288 295.209 421.592 293.905 421.592 292.295C421.592 290.686 420.288 289.382 418.679 289.382C417.07 289.382 415.765 290.686 415.765 292.295C415.765 293.905 417.07 295.209 418.679 295.209Z" fill="white"/>
<path opacity="0.1" d="M464.81 433.866C466.419 433.866 467.724 432.561 467.724 430.952C467.724 429.343 466.419 428.038 464.81 428.038C463.201 428.038 461.896 429.343 461.896 430.952C461.896 432.561 463.201 433.866 464.81 433.866Z" fill="black"/>
<path opacity="0.1" d="M426.465 433.866C428.074 433.866 429.379 432.561 429.379 430.952C429.379 429.343 428.074 428.038 426.465 428.038C424.856 428.038 423.551 429.343 423.551 430.952C423.551 432.561 424.856 433.866 426.465 433.866Z" fill="black"/>
<path d="M464.81 432.894C466.419 432.894 467.724 431.59 467.724 429.981C467.724 428.371 466.419 427.067 464.81 427.067C463.201 427.067 461.896 428.371 461.896 429.981C461.896 431.59 463.201 432.894 464.81 432.894Z" fill="white"/>
<path opacity="0.1" d="M429.379 482.652C430.988 482.652 432.293 481.348 432.293 479.739C432.293 478.13 430.988 476.825 429.379 476.825C427.77 476.825 426.465 478.13 426.465 479.739C426.465 481.348 427.77 482.652 429.379 482.652Z" fill="black"/>
<path opacity="0.1" d="M466.024 479.739C467.634 479.739 468.938 478.434 468.938 476.825C468.938 475.216 467.634 473.911 466.024 473.911C464.415 473.911 463.111 475.216 463.111 476.825C463.111 478.434 464.415 479.739 466.024 479.739Z" fill="black"/>
<path d="M429.379 481.681C430.988 481.681 432.293 480.377 432.293 478.767C432.293 477.158 430.988 475.854 429.379 475.854C427.77 475.854 426.465 477.158 426.465 478.767C426.465 480.377 427.77 481.681 429.379 481.681Z" fill="white"/>
<path d="M426.465 432.894C428.074 432.894 429.379 431.59 429.379 429.981C429.379 428.371 428.074 427.067 426.465 427.067C424.856 427.067 423.551 428.371 423.551 429.981C423.551 431.59 424.856 432.894 426.465 432.894Z" fill="white"/>
<path d="M466.024 478.767C467.634 478.767 468.938 477.463 468.938 475.854C468.938 474.244 467.634 472.94 466.024 472.94C464.415 472.94 463.111 474.244 463.111 475.854C463.111 477.463 464.415 478.767 466.024 478.767Z" fill="white"/>
<path d="M464.568 253.204C466.178 253.204 467.482 251.9 467.482 250.291C467.482 248.681 466.178 247.377 464.568 247.377C462.959 247.377 461.655 248.681 461.655 250.291C461.655 251.9 462.959 253.204 464.568 253.204Z" fill="white"/>
<path d="M466.024 292.296C467.634 292.296 468.938 290.991 468.938 289.382C468.938 287.773 467.634 286.468 466.024 286.468C464.415 286.468 463.111 287.773 463.111 289.382C463.111 290.991 464.415 292.296 466.024 292.296Z" fill="white"/>
<path opacity="0.1" d="M470.395 391.601C470.395 391.601 470.881 458.129 472.337 470.026C472.337 470.026 472.866 394.737 470.395 391.601Z" fill="black"/>
<path opacity="0.1" d="M482.778 422.437C481.777 422.437 502.688 500.377 503.659 505.961C504.631 511.546 488.606 422.437 482.778 422.437Z" fill="black"/>
<path opacity="0.1" d="M499.289 409.811C499.289 410.54 510.943 452.059 516.77 454.244C522.598 456.429 499.289 409.811 499.289 409.811Z" fill="black"/>
<path opacity="0.1" d="M545.178 328.958C545.178 328.958 520.412 330.062 519.684 333.638C518.955 337.214 545.178 328.958 545.178 328.958Z" fill="black"/>
<path opacity="0.1" d="M501.474 645.572C501.474 645.572 483.75 653.099 486.421 653.585C489.091 654.07 501.474 645.572 501.474 645.572Z" fill="black"/>
<path opacity="0.1" d="M464.812 634.404C464.121 632.85 476.709 640.716 476.709 641.688C476.709 642.659 465.783 636.589 464.812 634.404Z" fill="black"/>
<path opacity="0.1" d="M481.322 659.898C481.322 659.898 495.162 659.199 496.133 664.526C497.104 669.853 481.322 659.898 481.322 659.898Z" fill="black"/>
<path opacity="0.1" d="M381.773 659.867C381.773 659.867 396.827 656.924 398.041 659.867C399.255 662.811 381.773 659.867 381.773 659.867Z" fill="black"/>
<path opacity="0.1" d="M387.357 751.434C387.357 751.434 388.344 763.817 384.694 766.73C381.044 769.644 387.357 751.434 387.357 751.434Z" fill="black"/>
<path opacity="0.1" d="M385.519 777.657C390.271 778.142 415.279 773.772 415.037 777.657C414.794 781.541 385.519 777.657 385.519 777.657Z" fill="black"/>
<path opacity="0.1" d="M500.26 762.603C500.26 762.603 491.731 761.292 493.811 767.046L500.26 762.603Z" fill="black"/>
<path opacity="0.1" d="M341.71 277.97H337.097L330.056 303.707C330.056 303.707 327.628 312.691 325.2 314.876C322.772 317.061 327.385 336.971 327.385 336.971C327.385 336.971 324.714 351.053 322.529 354.695C320.344 358.338 325.928 367.321 325.928 367.321L337.097 393.544L366.719 401.313C366.719 401.313 418.921 412.725 421.349 414.425C423.777 416.124 425.963 413.696 427.662 397.914C429.362 382.132 433.975 351.539 437.617 350.082C437.617 350.082 408.481 353.239 406.053 352.753C403.625 352.268 391.97 352.996 391.97 352.996C391.97 352.996 376.674 352.025 374.246 353.482C371.818 354.938 377.402 346.429 377.402 346.429C378.425 342.533 378.425 338.439 377.402 334.543C375.703 327.987 374.731 253.69 341.71 277.97Z" fill="black"/>
<path opacity="0.1" d="M436.647 352.996C433.005 354.453 428.391 385.046 426.692 400.828C424.992 416.61 422.807 419.038 420.379 417.338C418.407 415.959 383.609 408.17 370.604 405.295C372.654 393.204 373.761 379.704 373.761 379.704L336.855 280.884H340.74C373.761 256.603 374.732 330.901 376.432 337.456C377.454 341.353 377.454 345.447 376.432 349.344C376.432 349.344 370.847 357.852 373.275 356.395C375.703 354.938 391 355.909 391 355.909C391 355.909 402.654 355.181 405.082 355.667C407.51 356.152 436.647 352.996 436.647 352.996Z" fill="black"/>
<path d="M340.739 278.941H336.126L329.085 304.678C329.085 304.678 326.657 313.662 324.229 315.847C321.801 318.032 326.414 337.942 326.414 337.942C326.414 337.942 323.743 352.025 321.558 355.667C319.373 359.309 324.957 368.292 324.957 368.292L336.126 394.515L365.748 402.285C365.748 402.285 417.95 413.696 420.378 415.396C422.806 417.096 424.992 414.668 426.691 398.886C428.391 383.103 433.004 352.51 436.646 351.054C436.646 351.054 407.51 354.21 405.082 353.724C402.654 353.239 390.999 353.967 390.999 353.967C390.999 353.967 375.703 352.996 373.275 354.453C370.847 355.91 376.431 347.401 376.431 347.401C377.453 343.504 377.453 339.41 376.431 335.514C374.732 328.958 373.76 254.661 340.739 278.941Z" fill="#FF7A00"/>
<path opacity="0.1" d="M356.521 366.836C356.521 366.836 343.167 392.087 340.739 389.173C338.311 386.26 356.521 366.836 356.521 366.836Z" fill="black"/>
<path opacity="0.1" d="M342.681 352.456C342.681 352.456 330.298 362.708 336.126 365.379C341.953 368.05 342.681 352.456 342.681 352.456Z" fill="black"/>
<path opacity="0.1" d="M354.336 339.885C355.308 340.127 372.304 343.503 372.547 344.972C372.789 346.44 354.336 339.885 354.336 339.885Z" fill="black"/>
<path opacity="0.1" d="M472.202 162.018C471.674 162.203 471.223 162.561 470.922 163.032C470.621 163.504 470.487 164.063 470.541 164.62C469.55 165.494 468.161 164.465 467.355 163.348C466.539 162.241 465.617 160.871 464.383 161.027C463.798 161.214 463.229 161.451 462.684 161.736C460.741 162.357 459.1 160.075 458.012 158.074C456.118 154.568 454.225 151.066 452.331 147.566C448.533 149.771 444.046 147.459 440.278 145.177C436.51 142.894 432.023 140.573 428.216 142.778C422.631 146.002 422.427 156.754 416.639 159.405C414.774 160.26 412.608 160.075 410.879 161.25C409.17 162.416 408.248 164.659 407.48 166.806C407.196 168.027 406.529 169.127 405.577 169.943C404.971 170.259 404.298 170.422 403.615 170.418C401.899 170.71 400.134 170.462 398.565 169.709C397.742 169.192 397.12 168.41 396.802 167.492C396.484 166.574 396.489 165.574 396.816 164.659C396.862 164.562 396.914 164.468 396.972 164.378C397.594 163.625 398.153 162.823 398.642 161.979C399.225 160.434 398.39 158.638 398.574 156.967C398.875 154.112 401.896 152.607 402.411 149.8C402.624 148.702 402.401 147.527 402.605 146.42C402.633 146.275 402.672 146.132 402.721 145.993L400.944 147.216C402.935 144.895 403.935 141.671 405.392 138.854C407.011 135.77 409.238 133.047 411.938 130.848C414.639 128.65 417.758 127.022 421.106 126.063C427.439 124.218 434.13 124.723 440.521 126.287C446.598 127.801 452.419 130.199 457.799 133.406C459.72 134.436 461.428 135.824 462.829 137.494C464.004 139.226 465.003 141.071 465.811 143.001C467.695 146.905 472.843 150.518 468.744 151.062C465.335 151.519 468.443 153.908 470.23 155.52C470.633 155.836 470.981 156.217 471.26 156.647C471.556 157.261 471.692 157.94 471.655 158.622C471.617 159.303 471.408 159.963 471.046 160.541C470.356 161.415 473.153 161.59 472.202 162.018Z" fill="black"/>
<path d="M472.202 161.046C471.674 161.232 471.223 161.589 470.922 162.061C470.621 162.533 470.487 163.092 470.541 163.649C469.55 164.523 468.161 163.494 467.355 162.377C466.54 161.27 465.617 159.9 464.383 160.056C463.798 160.243 463.229 160.48 462.684 160.765C460.741 161.386 459.1 159.104 458.012 157.103C456.118 153.597 454.225 150.094 452.331 146.595C448.533 148.799 444.046 146.488 440.278 144.206C436.51 141.923 432.023 139.602 428.216 141.807C422.631 145.031 422.427 155.782 416.639 158.434C414.774 159.288 412.608 159.104 410.879 160.279C409.17 161.445 408.248 163.688 407.48 165.834C407.196 167.056 406.529 168.155 405.577 168.971C404.971 169.288 404.298 169.451 403.615 169.447C401.899 169.739 400.134 169.491 398.565 168.738C397.742 168.221 397.12 167.439 396.802 166.521C396.484 165.602 396.489 164.603 396.816 163.688C396.862 163.591 396.914 163.497 396.972 163.406C397.594 162.654 398.153 161.852 398.642 161.008C399.225 159.463 398.39 157.667 398.574 155.996C398.875 153.141 401.896 151.635 402.411 148.829C402.624 147.731 402.401 146.556 402.605 145.449C402.633 145.304 402.672 145.161 402.721 145.021L400.944 146.245C402.935 143.924 403.935 140.7 405.392 137.883C407.011 134.799 409.238 132.076 411.938 129.877C414.639 127.679 417.758 126.051 421.106 125.092C427.439 123.247 434.13 123.752 440.521 125.316C446.598 126.83 452.419 129.228 457.799 132.435C459.72 133.465 461.428 134.853 462.829 136.523C464.004 138.255 465.003 140.1 465.811 142.03C467.695 145.934 472.843 149.547 468.744 150.091C465.335 150.548 468.443 152.937 470.23 154.549C470.633 154.865 470.981 155.246 471.26 155.676C471.556 156.29 471.692 156.969 471.655 157.65C471.618 158.331 471.408 158.992 471.046 159.57C470.356 160.444 473.153 160.619 472.202 161.046Z" fill="#865A61"/>
<path opacity="0.1" d="M470.23 154.549L469.842 158.638C469.842 158.638 429.09 106.989 397.39 165.31C397.39 165.31 397.234 164.601 396.972 163.406C397.594 162.654 398.153 161.852 398.643 161.008C399.225 159.463 398.39 157.667 398.575 155.996C398.876 153.141 401.896 151.635 402.411 148.829C402.625 147.731 402.401 146.556 402.605 145.449C402.634 145.304 402.673 145.161 402.722 145.021L400.944 146.245C402.935 143.924 403.936 140.7 405.393 137.883C407.011 134.799 409.238 132.076 411.939 129.877C414.64 127.679 417.759 126.051 421.107 125.092C427.439 123.247 434.131 123.752 440.521 125.316C446.598 126.83 452.419 129.228 457.799 132.435C459.721 133.465 461.428 134.853 462.83 136.523C464.004 138.255 465.003 140.1 465.811 142.03C467.696 145.934 472.843 149.547 468.745 150.091C465.336 150.548 468.443 152.937 470.23 154.549Z" fill="black"/>
<g opacity="0.1">
<path d="M471.235 160.517C471.034 160.743 470.888 161.012 470.808 161.304C470.728 161.595 470.716 161.901 470.773 162.198C469.782 163.072 468.394 162.043 467.588 160.926C466.772 159.819 465.849 158.449 464.616 158.605C464.03 158.792 463.461 159.029 462.916 159.314C460.974 159.935 459.332 157.653 458.244 155.652C456.351 152.146 454.457 148.643 452.563 145.144C448.766 147.349 444.279 145.037 440.51 142.755C436.742 140.472 432.255 138.151 428.448 140.356C422.863 143.58 422.659 154.332 416.871 156.983C415.006 157.838 412.841 157.653 411.112 158.828C409.402 159.994 408.48 162.237 407.713 164.384C407.429 165.605 406.762 166.704 405.809 167.521C405.204 167.837 404.53 168 403.847 167.996C402.131 168.288 400.366 168.04 398.797 167.287C397.856 166.664 397.182 165.712 396.904 164.618C396.711 165.488 396.789 166.396 397.128 167.22C397.466 168.045 398.048 168.746 398.797 169.23C400.366 169.983 402.131 170.23 403.847 169.939C404.53 169.943 405.204 169.779 405.809 169.463C406.762 168.647 407.429 167.548 407.713 166.326C408.48 164.18 409.402 161.936 411.112 160.771C412.841 159.595 415.006 159.78 416.871 158.925C422.659 156.274 422.863 145.523 428.448 142.298C432.255 140.094 436.742 142.415 440.51 144.697C444.279 146.979 448.766 149.291 452.563 147.086C454.457 150.583 456.351 154.085 458.244 157.595C459.332 159.595 460.974 161.878 462.916 161.256C463.461 160.971 464.03 160.734 464.616 160.547C465.849 160.392 466.772 161.761 467.588 162.868C468.394 163.985 469.782 165.015 470.773 164.141C470.719 163.584 470.853 163.025 471.154 162.553C471.455 162.081 471.906 161.724 472.434 161.538C473.191 161.198 471.581 161.017 471.235 160.517Z" fill="black"/>
<path d="M468.059 150.814C468.353 150.696 468.661 150.618 468.976 150.583C470.783 150.343 470.79 149.505 470.075 148.311C469.735 148.494 469.361 148.606 468.976 148.64C467.026 148.901 467.211 149.795 468.059 150.814Z" fill="black"/>
<path d="M471.78 158.95C471.916 158.323 471.912 157.675 471.77 157.05C471.684 157.437 471.516 157.802 471.278 158.119C470.974 158.505 471.348 158.754 471.78 158.95Z" fill="black"/>
<path d="M398.863 156.152C398.842 156.263 398.818 156.373 398.806 156.488C398.767 157.362 398.83 158.239 398.996 159.098C399.11 158.116 399.065 157.12 398.863 156.152Z" fill="black"/>
<path d="M402.806 144.303C402.349 145.169 401.803 145.984 401.176 146.737L402.744 145.658C402.736 145.205 402.757 144.753 402.806 144.303Z" fill="black"/>
</g>
<path d="M397.388 164.339C397.388 164.339 391.527 138.142 393.392 133.94C393.392 133.94 388.331 123.56 388.331 121.089C388.085 116.965 386.803 112.969 384.602 109.473C381.938 105.272 379.008 85.7472 394.99 81.0515C410.973 76.3558 423.226 72.1543 425.09 68.9415C426.955 65.7287 454.392 67.7058 461.85 80.0629C469.309 92.4201 474.103 89.9486 474.103 89.9486C474.103 89.9486 485.557 97.1158 485.557 103.542C485.557 109.967 482.094 113.18 485.557 114.663C489.02 116.146 486.356 142.837 471.173 143.579L469.841 157.666C469.841 157.666 429.086 106.013 397.388 164.339Z" fill="#FF7A00"/>
<path opacity="0.1" d="M399.133 86.1565C399.133 86.1565 395.612 106.795 402.046 113.715L399.133 86.1565Z" fill="black"/>
<path opacity="0.1" d="M415.643 81.4216C415.643 81.4216 406.66 103.517 408.845 107.766L415.643 81.4216Z" fill="black"/>
<path opacity="0.1" d="M423.413 74.3806C423.413 74.3806 417.343 103.153 420.257 105.459L423.413 74.3806Z" fill="black"/>
<path opacity="0.1" d="M433.854 82.1501C433.854 82.1501 426.327 100.603 429.362 103.153L433.854 82.1501Z" fill="black"/>
<path opacity="0.1" d="M448.058 84.3357C448.058 84.3357 439.196 99.3894 441.017 102.06L448.058 84.3357Z" fill="black"/>
<path opacity="0.1" d="M466.268 99.0249C466.268 99.0249 456.798 101.574 458.741 104.609L466.268 99.0249Z" fill="black"/>
<path opacity="0.1" d="M475.251 114.686C475.251 114.686 466.753 118.813 468.331 120.998L475.251 114.686Z" fill="black"/>
<path opacity="0.1" d="M393.393 133.94C393.393 133.94 447.671 111.893 471.174 143.579C471.174 143.579 442.646 119.324 393.393 133.94Z" fill="black"/>
<path d="M373.777 315.098L381.341 307.447L402.724 328.584L395.161 336.236L375.495 316.797L373.777 315.098Z" fill="#53526B"/>
<path d="M324.16 266.05C324.16 266.05 357.263 268.867 388.072 303.545L375.231 316.535L324.16 266.05Z" fill="#DFE6F5"/>
<path d="M423.45 328.055C423.45 328.055 391.633 316.457 388.507 313.683C385.38 310.91 366.989 327.047 389.426 348.982C389.426 348.982 416.862 356.799 424.202 348.982C431.542 341.166 423.45 328.055 423.45 328.055Z" fill="#FDC2CC"/>
<path d="M1012.39 549.73H1005.92V695.29H1012.39V549.73Z" fill="#535461"/>
<path d="M1053.02 694.848L1052.61 701.404L1052.04 710.655L1051.8 714.515L1051.23 723.777L1050.98 727.637L1050.41 736.888L1043.89 842.133C1043.61 846.661 1041.61 850.912 1038.3 854.019C1035 857.126 1030.63 858.856 1026.1 858.856H992.207C987.671 858.856 983.307 857.126 980.003 854.018C976.699 850.911 974.705 846.66 974.427 842.133L967.893 736.888L967.321 727.637L967.084 723.777L966.502 714.515L966.265 710.655L965.693 701.404L965.284 694.848C965.206 693.59 965.387 692.329 965.815 691.144C966.244 689.958 966.91 688.873 967.774 687.955C968.638 687.036 969.68 686.305 970.837 685.805C971.994 685.305 973.242 685.047 974.502 685.047H1043.81C1045.07 685.047 1046.32 685.305 1047.47 685.805C1048.63 686.306 1049.67 687.038 1050.53 687.956C1051.4 688.874 1052.06 689.959 1052.49 691.145C1052.92 692.33 1053.1 693.591 1053.02 694.848Z" fill="#65617D"/>
<path d="M1052.61 701.404L1052.04 710.655H966.264L965.693 701.404H1052.61Z" fill="#9D9CB5"/>
<path d="M1051.8 714.515L1051.23 723.778H967.084L966.501 714.515H1051.8Z" fill="#9D9CB5"/>
<path d="M1050.98 727.637L1050.41 736.888H967.893L967.321 727.637H1050.98Z" fill="#9D9CB5"/>
<path d="M955.819 604.29C993.473 631.527 1009.15 674.133 1009.15 674.133C1009.15 674.133 963.779 672.578 926.125 645.34C888.47 618.102 872.793 575.496 872.793 575.496C872.793 575.496 918.165 577.052 955.819 604.29Z" fill="#FF7A00"/>
<path d="M872.793 575.496C872.793 575.496 919.886 601.638 934.994 623.279C950.102 644.921 1009.15 674.133 1009.15 674.133" stroke="#535461" stroke-width="2.50026" stroke-miterlimit="10"/>
<path d="M980.123 549.409C1000.62 564.235 1009.15 587.424 1009.15 587.424C1009.15 587.424 984.456 586.578 963.961 571.752C943.466 556.927 934.933 533.737 934.933 533.737C934.933 533.737 959.628 534.584 980.123 549.409Z" fill="#FF7A00"/>
<path d="M934.933 533.737C934.933 533.737 960.565 547.966 968.788 559.745C977.011 571.524 1009.15 587.424 1009.15 587.424" stroke="#535461" stroke-width="2.50026" stroke-miterlimit="10"/>
<path d="M1038.93 586.244C1015.39 612.118 1010.41 645.924 1010.41 645.924C1010.41 645.924 1043.6 637.781 1067.14 611.907C1090.68 586.034 1095.66 552.228 1095.66 552.228C1095.66 552.228 1062.47 560.37 1038.93 586.244Z" fill="#FF7A00"/>
<path d="M1095.66 552.228C1095.66 552.228 1065 578.749 1057.2 597.023C1049.41 615.296 1010.41 645.924 1010.41 645.924" stroke="#535461" stroke-width="2.50026" stroke-miterlimit="10"/>
</g>
<defs>
<linearGradient id="paint0_linear_15_296" x1="441.272" y1="858.645" x2="441.272" y2="64.1123" gradientUnits="userSpaceOnUse">
<stop stop-color="#808080" stop-opacity="0.25"/>
<stop offset="0.53514" stop-color="#808080" stop-opacity="0.12"/>
<stop offset="1" stop-color="#808080" stop-opacity="0.1"/>
</linearGradient>
<clipPath id="clip0_15_296">
<rect width="1112.7" height="866" fill="white"/>
</clipPath>
</defs>
</svg>
