<svg width="3027" height="1453" viewBox="0 0 3027 1453" fill="none" xmlns="http://www.w3.org/2000/svg">
<rect width="3027" height="1444.72" fill="#FFE1C6"/>
<path fill-rule="evenodd" clip-rule="evenodd" d="M0 1344.2L72.3848 1348.16C144.77 1352.12 289.539 1362.01 434.309 1358.05C579.078 1352.12 723.848 1334.31 862.037 1312.55C1006.81 1288.82 1151.58 1261.12 1296.35 1261.12C1441.12 1261.12 1585.88 1288.82 1730.65 1298.71C1875.42 1306.62 2020.19 1298.71 2164.96 1288.82C2303.15 1280.9 2447.92 1271.01 2592.69 1284.86C2737.46 1298.71 2882.23 1334.31 2954.62 1352.12L3027 1371.9V1453H2954.62C2882.23 1453 2737.46 1453 2592.69 1453C2447.92 1453 2303.15 1453 2164.96 1453C2020.19 1453 1875.42 1453 1730.65 1453C1585.88 1453 1441.12 1453 1296.35 1453C1151.58 1453 1006.81 1453 862.037 1453C723.848 1453 579.078 1453 434.309 1453C289.539 1453 144.77 1453 72.3848 1453H0V1344.2Z" fill="#FBFBFC"/>
</svg>
